<svg xmlns="http://www.w3.org/2000/svg" viewBox="0 0 220 200">
  <rect x="4" y="4" width="212" height="192" rx="28" fill="#eef1f6" stroke="#e2e6ed" stroke-width="4"/>
  <path fill="#262B36" d="M110,64 C146,64 164,96 162,134 C160,172 138,192 110,192 C82,192 60,172 58,134 C56,96 74,64 110,64 Z"/>
  <path fill="#14161C" d="M64,108 C48,124 46,160 64,178 C76,160 74,128 76,110 C72,107 68,106 64,108 Z"/>
  <path fill="#14161C" d="M156,108 C172,124 174,160 156,178 C144,160 146,128 144,110 C148,107 152,106 156,108 Z"/>
  <circle fill="#262B36" cx="110" cy="98" r="44"/>
  <path fill="#14161C" d="M90,112 C98,130 104,148 110,158 C116,148 122,130 130,112 C122,120 98,120 90,112 Z"/>
  <circle fill="#d97706" cx="90" cy="98" r="14"/>
  <circle fill="#d97706" cx="130" cy="98" r="14"/>
  <circle fill="#111827" cx="90" cy="98" r="7"/>
  <circle fill="#111827" cx="130" cy="98" r="7"/>
</svg>
